<svg xmlns="http://www.w3.org/2000/svg" xmlns:xlink="http://www.w3.org/1999/xlink" width="16" height="16" viewBox="0 0 16 16">
    <defs>
        <path id="rj4h09j46a" d="M2.195.429h12c1.105 0 2 .895 2 2v12c0 1.104-.895 2-2 2h-12c-1.105 0-2-.896-2-2v-12c0-1.105.895-2 2-2zm6.25 12c2.21 0 4-1.79 4-4s-1.79-4-4-4-4 1.79-4 4 1.79 4 4 4zm4.75-9.973c-.552 0-1 .447-1 1 0 .552.448 1 1 1s1-.448 1-1c0-.553-.448-1-1-1z"/>
    </defs>
    <g fill="none" fill-rule="evenodd">
        <g>
            <g>
                <g>
                    <g transform="translate(-1195.000000, -24.000000) translate(1194.000000, 23.000000) translate(0.804960, 0.544262)">
                        <mask id="dmlcft4akb" fill="#fff">
                            <use xlink:href="#rj4h09j46a"/>
                        </mask>
                        <use fill="#4B4C4E" xlink:href="#rj4h09j46a"/>
                        <g fill="#000" mask="url(#dmlcft4akb)">
                            <rect width="80" height="75" y="1" rx="6" transform="translate(-30.000000, -27.000000)"/>
                        </g>
                    </g>
                </g>
            </g>
        </g>
    </g>
</svg>
