<svg xmlns="http://www.w3.org/2000/svg" xmlns:xlink="http://www.w3.org/1999/xlink" width="48" height="48" viewBox="0 0 48 48">
    <defs>
        <path id="v0d85yta6a" d="M18.92 1.56c-2.614 1.963-4.687 3.87-6.222 5.717-1.534 1.849-2.727 3.668-3.579 5.458-.852 1.79-1.42 3.466-1.704 5.025-.285 1.56-.427 2.975-.427 4.245v2.08c0 .462.057.808.17 1.04 1.25-.925 2.302-1.531 3.154-1.82.852-.289 1.676-.433 2.472-.433 2.386 0 4.46.78 6.221 2.339 1.761 1.56 2.642 3.667 2.642 6.324 0 3.004-.937 5.4-2.812 7.191-1.875 1.79-4.006 2.686-6.392 2.686-1.477 0-2.955-.318-4.432-.953-1.477-.636-2.812-1.589-4.005-2.86-1.194-1.27-2.16-2.858-2.898-4.764C.369 30.929 0 28.647 0 25.99c0-5.545 1.704-10.512 5.113-14.902C8.523 6.7 12.727 3.003 17.727 0l1.193 1.56zm26.353 0c-2.614 1.963-4.688 3.87-6.222 5.717-1.534 1.849-2.727 3.668-3.579 5.458-.852 1.79-1.42 3.466-1.705 5.025-.284 1.56-.426 2.975-.426 4.245v2.08c0 .462.057.808.17 1.04 1.25-.925 2.302-1.531 3.154-1.82.852-.289 1.676-.433 2.472-.433 2.386 0 4.46.78 6.221 2.339C47.119 26.77 48 28.878 48 31.535c0 3.004-.937 5.4-2.812 7.191-1.875 1.79-4.006 2.686-6.392 2.686-1.477 0-2.955-.318-4.432-.953-1.477-.636-2.812-1.589-4.006-2.86-1.193-1.27-2.159-2.858-2.897-4.764-.739-1.906-1.108-4.188-1.108-6.844 0-5.545 1.704-10.512 5.113-14.902C34.876 6.7 39.08 3.003 44.08 0l1.193 1.56z"/>
    </defs>
    <g fill="none" fill-rule="evenodd">
        <g>
            <g>
                <g>
                    <g>
                        <g transform="translate(-506.000000, -1489.000000) translate(300.000000, 1485.000000) translate(0.000000, 4.000000) translate(206.000000, 0.000000)">
                            <mask id="hiui0two7b" fill="#fff">
                                <use xlink:href="#v0d85yta6a"/>
                            </mask>
                            <g fill="silver" mask="url(#hiui0two7b)">
                                <rect width="75" height="75" x="1" rx="6" transform="translate(-14.000000, -17.000000)"/>
                            </g>
                        </g>
                    </g>
                </g>
            </g>
        </g>
    </g>
</svg>
