<svg xmlns="http://www.w3.org/2000/svg" xmlns:xlink="http://www.w3.org/1999/xlink" width="16" height="16" viewBox="0 0 16 16">
    <defs>
        <path id="lakre892va" d="M16 2.034c-.594.266-1.187.436-1.781.508.662-.423 1.113-1.024 1.353-1.8-.606.388-1.257.655-1.953.8-.617-.69-1.37-1.036-2.261-1.036-.856 0-1.587.32-2.192.963-.606.644-.908 1.42-.908 2.33 0 .241.023.49.07.745-1.269-.072-2.451-.412-3.547-1.019-1.096-.606-2.032-1.412-2.809-2.42-.285.51-.428 1.055-.428 1.638s.126 1.11.377 1.582c.251.474.588.861 1.01 1.164-.49-.023-.953-.163-1.387-.418v.036c-.012.802.222 1.498.703 2.093.479.594 1.072.97 1.78 1.127-.262.073-.53.11-.804.11-.183 0-.377-.018-.583-.055.206.655.57 1.195 1.096 1.62.526.424 1.125.642 1.798.655-1.119.933-2.398 1.4-3.836 1.4-.274 0-.525-.012-.753-.037 1.438.983 3.02 1.474 4.744 1.474 1.096.013 2.124-.17 3.083-.545.96-.376 1.781-.868 2.466-1.474.685-.606 1.273-1.315 1.764-2.129.492-.811.857-1.654 1.096-2.528.24-.873.361-1.752.361-2.638 0-.182-.006-.32-.018-.418.606-.46 1.119-1.025 1.542-1.692L16 2.034z"/>
    </defs>
    <g fill="none" fill-rule="evenodd">
        <g>
            <g>
                <g>
                    <g transform="translate(-1227.000000, -24.000000) translate(1226.000000, 24.000000) translate(0.500000, 1.000000)">
                        <mask id="r82132351b" fill="#fff">
                            <use xlink:href="#lakre892va"/>
                        </mask>
                        <g fill="#000" mask="url(#r82132351b)">
                            <rect width="80" height="80" rx="6" transform="translate(-24.000000, -33.000000)"/>
                        </g>
                    </g>
                </g>
            </g>
        </g>
    </g>
</svg>
