<?xml version="1.0" encoding="UTF-8"?>
<svg width="16px" height="16px" viewBox="0 0 16 16" version="1.1" xmlns="http://www.w3.org/2000/svg" xmlns:xlink="http://www.w3.org/1999/xlink">
    <!-- Generator: sketchtool 56.3 (101010) - https://sketch.com -->
    <title>E09C4E48-160B-436E-BB3A-2710F7F0C33E</title>
    <desc>Created with sketchtool.</desc>
    <defs>
        <path d="M16,2.03357186 C15.4063171,2.30029535 14.8126341,2.46991077 14.2189512,2.54241813 C14.8809016,2.11902696 15.3319543,1.51825172 15.5721094,0.74138718 C14.9662359,1.12981945 14.3152571,1.39654294 13.619173,1.54285243 C13.0023279,0.85144299 12.2489479,0.505738271 11.357814,0.505738271 C10.5020328,0.505738271 9.77059593,0.826842279 9.16594145,1.4690503 C8.5600679,2.11255309 8.25774066,2.88812285 8.25774066,3.79834913 C8.25774066,4.04047191 8.28090282,4.28906856 8.32722716,4.54413908 C7.05940324,4.47163173 5.87691362,4.13240088 4.78097737,3.52515177 C3.68504111,2.91919743 2.74880191,2.11255309 1.97225976,1.10521874 C1.68699938,1.61535978 1.54436919,2.16045973 1.54436919,2.74310813 C1.54436919,3.32575654 1.66993252,3.85272965 1.92105918,4.32532224 C2.17218584,4.79920961 2.5086468,5.1863471 2.93166113,5.48932427 C2.44037936,5.46601833 1.97835507,5.32618272 1.54436919,5.07111219 L1.54436919,5.10736587 C1.53217857,5.90883112 1.76623837,6.60541965 2.24654859,7.19972102 C2.72563974,7.79402239 3.31932267,8.17080169 4.02759738,8.32746937 C3.76549917,8.39997673 3.49730565,8.43752518 3.22301682,8.43752518 C3.0401576,8.43752518 2.84632683,8.41939834 2.64030544,8.38184989 C2.84632683,9.03700565 3.2108262,9.5769265 3.73624169,10.0016124 C4.26165718,10.4262984 4.86143542,10.6438205 5.53435735,10.6567682 C4.41525893,11.5903004 3.13646346,12.0577139 1.69797093,12.0577139 C1.4236821,12.0577139 1.17255544,12.0447662 0.944590947,12.0201655 C2.38308347,13.0028991 3.96420619,13.4936185 5.68917816,13.4936185 C6.78511441,13.5065663 7.81278322,13.3240031 8.77218459,12.9485186 C9.73158596,12.5730341 10.5532334,12.0810199 11.2383459,11.4750655 C11.9234585,10.8691112 12.5110461,10.1595749 13.0023279,9.34645669 C13.4936096,8.53463325 13.8593281,7.69173523 14.0982641,6.81776262 C14.3384192,5.9450848 14.4591063,5.0659331 14.4591063,4.18030753 C14.4591063,3.99774436 14.453011,3.85920352 14.4408204,3.76209545 C15.0466939,3.30115583 15.5599188,2.73663426 15.9829331,2.06982554 L16,2.03357186 Z" id="path-1"></path>
    </defs>
    <g id="Extra-large-(XL)-≥1200px" stroke="none" stroke-width="1" fill="none" fill-rule="evenodd">
        <g id="01A-Homepage--v-XL" transform="translate(-1226.000000, -11782.000000)">
            <g id="footer-/-default" transform="translate(-1.000000, 10976.000000)">
                <g id="icons-/-socials-/-twitter-/-solid" transform="translate(1226.000000, 806.000000)">
                    <g id="colour-/-primary" transform="translate(0.500000, 1.000000)">
                        <mask id="mask-2" fill="white">
                            <use xlink:href="#path-1"></use>
                        </mask>
                        <g id="Mask"></g>
                        <g id="colour-/-white" mask="url(#mask-2)" fill="#FFFFFF">
                            <g transform="translate(-24.000000, -33.000000)">
                                <rect x="0" y="0" width="80" height="80" rx="6"></rect>
                            </g>
                        </g>
                    </g>
                </g>
            </g>
        </g>
    </g>
</svg>