<svg xmlns="http://www.w3.org/2000/svg" xmlns:xlink="http://www.w3.org/1999/xlink" width="16" height="16" viewBox="0 0 16 16">
    <defs>
        <path id="irlgdopqia" d="M14.37.361c-.895-.523-1.93-.478-3.108.137-1.336.705-2.128 1.775-2.377 3.21.86-.524 1.494-.513 1.902.034.407.546.373 1.252-.102 2.117-.974 1.89-1.687 2.834-2.14 2.834-.113 0-.215-.063-.306-.188-.09-.125-.192-.347-.305-.666-.114-.319-.21-.625-.289-.922l-.357-1.366c-.068-.273-.14-.654-.22-1.144l-.204-1.28c-.057-.364-.142-.763-.255-1.195-.113-.433-.244-.774-.39-1.024C6.07.657 5.866.458 5.606.31c-.26-.148-.56-.188-.9-.12-.589.114-1.29.496-2.106 1.144-.815.649-1.38 1.156-1.698 1.52l-.78.888.61.853.34-.239c.25-.159.498-.278.747-.358.25-.08.464-.051.645.085.136.182.555 1.451 1.257 3.807.702 2.357 1.143 3.722 1.325 4.098.181.376.424.717.73 1.024.306.308.68.524 1.121.65.441.124.9.028 1.375-.291 1.2-.82 2.587-2.168 4.161-4.046 1.573-1.879 2.541-3.876 2.904-5.993.25-1.457-.074-2.447-.968-2.97"/>
    </defs>
    <g fill="none" fill-rule="evenodd">
        <g>
            <g>
                <g>
                    <g transform="translate(-1259.000000, -24.000000) translate(1259.000000, 24.000000) translate(0.200000, 1.000000)">
                        <mask id="7loyc1qhxb" fill="#fff">
                            <use xlink:href="#irlgdopqia"/>
                        </mask>
                        <use fill="#000" xlink:href="#irlgdopqia"/>
                        <g fill="#000" mask="url(#7loyc1qhxb)">
                            <rect width="80" height="80" rx="6" transform="translate(-29.000000, -25.000000)"/>
                        </g>
                    </g>
                </g>
            </g>
        </g>
    </g>
</svg>
