<?xml version="1.0" encoding="UTF-8"?>
<svg width="16px" height="16px" viewBox="0 0 16 16" version="1.1" xmlns="http://www.w3.org/2000/svg" xmlns:xlink="http://www.w3.org/1999/xlink">
    <!-- Generator: sketchtool 56.3 (101010) - https://sketch.com -->
    <title>4482747A-8804-452F-8FB5-3CB4CE5AAB93</title>
    <desc>Created with sketchtool.</desc>
    <defs>
        <path d="M14.3703062,0.361076167 C13.475395,-0.162442636 12.4402556,-0.116549754 11.2623383,0.497904945 C9.92634547,1.20329554 9.13426832,2.27327959 8.88525694,3.70785709 C9.74532354,3.18433828 10.3793252,3.19538657 10.7872619,3.74185182 C11.1943488,4.28831706 11.1603541,4.99370766 10.6852778,5.85887347 C9.71132881,7.74813045 8.99828941,8.69318387 8.54530966,8.69318387 C8.43227719,8.69318387 8.33029301,8.63029363 8.23935711,8.505363 C8.14927109,8.37958251 8.0472869,8.15776692 7.93425444,7.83906635 C7.8203721,7.52036578 7.72433699,7.21356336 7.64529925,6.91695936 L7.28835461,5.55122119 C7.22036516,5.2784135 7.14727649,4.89682268 7.06823875,4.40729861 L6.86427039,3.12654725 C6.80732922,2.76280366 6.7223424,2.36421548 6.60930993,1.93163258 C6.49627746,1.49904967 6.36539776,1.15825253 6.21837057,0.907541412 C6.07134337,0.656830296 5.867375,0.457961141 5.60731534,0.310084076 C5.34640581,0.162207011 5.0472522,0.122263207 4.70730493,0.190252662 C4.11834628,0.304134999 3.41635515,0.685725815 2.60133156,1.33417524 C1.78630797,1.98262467 1.22029576,2.48999598 0.903294923,2.85373956 L0.122266059,3.74185182 L0.733321286,4.59511948 L1.07326856,4.35630651 C1.32227994,4.19738116 1.57129132,4.07754975 1.8203027,3.99766214 C2.06931408,3.91777453 2.28433073,3.94667005 2.46535265,4.08264896 C2.60133156,4.26537062 3.02031658,5.53422382 3.7223077,7.89005844 C4.42429882,10.2467429 4.86538041,11.6124811 5.0472522,11.9881228 C5.22827413,12.3637646 5.47133643,12.7054116 5.77728898,13.012214 C6.08324152,13.3198663 6.45633366,13.5357328 6.89826512,13.6615133 C7.3393467,13.7864439 7.79827553,13.6895589 8.27335184,13.3708584 C9.47336572,12.5515854 10.8603506,11.2028446 12.4343065,9.32463594 C14.0074125,7.44642724 14.9754124,5.449237 15.3383061,3.33221535 C15.5873175,1.87469141 15.2643675,0.88459497 14.3703062,0.361076167" id="path-1"></path>
    </defs>
    <g id="Extra-large-(XL)-≥1200px" stroke="none" stroke-width="1" fill="none" fill-rule="evenodd">
        <g id="01A-Homepage--v-XL" transform="translate(-1258.000000, -11782.000000)">
            <g id="footer-/-default" transform="translate(-1.000000, 10976.000000)">
                <g id="icons-/-socials-/-vimeo-/-solid" transform="translate(1259.000000, 806.000000)">
                    <g id="colour-/-primary" transform="translate(0.200000, 1.000000)">
                        <mask id="mask-2" fill="white">
                            <use xlink:href="#path-1"></use>
                        </mask>
                        <use id="Mask" fill="#000000" xlink:href="#path-1"></use>
                        <g id="colour-/-white" mask="url(#mask-2)" fill="#FFFFFF">
                            <g transform="translate(-29.000000, -25.000000)">
                                <rect x="0" y="0" width="80" height="80" rx="6"></rect>
                            </g>
                        </g>
                    </g>
                </g>
            </g>
        </g>
    </g>
</svg>